<svg width="18" height="16" viewBox="0 0 18 16" fill="none" xmlns="http://www.w3.org/2000/svg">
<path d="M4.4625 15.3333L0.75 11.6208L4.4625 7.90829L5.425 8.87079L3.3625 10.9333H9.91667V12.3083H3.3625L5.425 14.3708L4.4625 15.3333ZM11.9792 12.3083C11.7958 12.3083 11.6354 12.2395 11.4979 12.102C11.3604 11.9645 11.2917 11.8041 11.2917 11.6208C11.2917 11.4222 11.3604 11.2579 11.4979 11.1281C11.6354 10.9982 11.7958 10.9333 11.9792 10.9333C12.1778 10.9333 12.342 10.9982 12.4719 11.1281C12.6017 11.2579 12.6667 11.4222 12.6667 11.6208C12.6667 11.8041 12.6017 11.9645 12.4719 12.102C12.342 12.2395 12.1778 12.3083 11.9792 12.3083ZM14.7292 12.3083C14.5458 12.3083 14.3854 12.2395 14.2479 12.102C14.1104 11.9645 14.0417 11.8041 14.0417 11.6208C14.0417 11.4222 14.1104 11.2579 14.2479 11.1281C14.3854 10.9982 14.5458 10.9333 14.7292 10.9333C14.9278 10.9333 15.092 10.9982 15.2219 11.1281C15.3517 11.2579 15.4167 11.4222 15.4167 11.6208C15.4167 11.8041 15.3517 11.9645 15.2219 12.102C15.092 12.2395 14.9278 12.3083 14.7292 12.3083ZM13.5375 8.09163L12.575 7.12913L14.6375 5.06663H8.08333V3.69163H14.6375L12.575 1.62913L13.5375 0.666626L17.25 4.37913L13.5375 8.09163ZM3.27083 5.06663C3.0875 5.06663 2.92708 4.99788 2.78958 4.86038C2.65208 4.72288 2.58333 4.56246 2.58333 4.37913C2.58333 4.18051 2.65208 4.01628 2.78958 3.88642C2.92708 3.75656 3.0875 3.69163 3.27083 3.69163C3.46944 3.69163 3.63368 3.75656 3.76354 3.88642C3.8934 4.01628 3.95833 4.18051 3.95833 4.37913C3.95833 4.56246 3.8934 4.72288 3.76354 4.86038C3.63368 4.99788 3.46944 5.06663 3.27083 5.06663ZM6.02083 5.06663C5.8375 5.06663 5.67708 4.99788 5.53958 4.86038C5.40208 4.72288 5.33333 4.56246 5.33333 4.37913C5.33333 4.18051 5.40208 4.01628 5.53958 3.88642C5.67708 3.75656 5.8375 3.69163 6.02083 3.69163C6.21944 3.69163 6.38368 3.75656 6.51354 3.88642C6.6434 4.01628 6.70833 4.18051 6.70833 4.37913C6.70833 4.56246 6.6434 4.72288 6.51354 4.86038C6.38368 4.99788 6.21944 5.06663 6.02083 5.06663Z" fill="#75BEE9"/>
</svg>
