<svg width="20" height="16" viewBox="0 0 20 16" fill="none" xmlns="http://www.w3.org/2000/svg">
<path d="M7.75156 13C7.62969 13 7.52188 12.9655 7.42812 12.8964C7.33437 12.8273 7.2875 12.7375 7.2875 12.627V11.4664C7.01562 11.3191 6.81641 11.1072 6.68984 10.8309C6.56328 10.5546 6.5 10.2599 6.5 9.94671V4.46184C6.5 3.78026 6.85859 3.28289 7.57578 2.96974C8.29297 2.65658 9.43906 2.5 11.0141 2.5C12.5703 2.5 13.707 2.65658 14.4242 2.96974C15.1414 3.28289 15.5 3.78026 15.5 4.46184V9.94671C15.5 10.2599 15.4367 10.5546 15.3102 10.8309C15.1836 11.1072 14.9844 11.3191 14.7125 11.4664V12.627C14.7125 12.7375 14.6656 12.8273 14.5719 12.8964C14.4781 12.9655 14.3703 13 14.2484 13H13.9812C13.85 13 13.7375 12.9655 13.6437 12.8964C13.55 12.8273 13.5031 12.7375 13.5031 12.627V11.8671H8.49687V12.627C8.49687 12.7375 8.45 12.8273 8.35625 12.8964C8.2625 12.9655 8.15 13 8.01875 13H7.75156ZM11.0141 4.10263H14.6562H7.34375H11.0141ZM13.5031 8.15066H7.34375H14.6562H13.5031ZM7.34375 7.32171H14.6562V4.93158H7.34375V7.32171ZM8.83437 10.3474C9.05 10.3474 9.23281 10.2737 9.38281 10.1263C9.53281 9.97895 9.60781 9.79934 9.60781 9.5875C9.60781 9.37566 9.53281 9.19605 9.38281 9.04868C9.23281 8.90132 9.05 8.82763 8.83437 8.82763C8.61875 8.82763 8.43594 8.90132 8.28594 9.04868C8.13594 9.19605 8.06094 9.37566 8.06094 9.5875C8.06094 9.79934 8.13594 9.97895 8.28594 10.1263C8.43594 10.2737 8.61875 10.3474 8.83437 10.3474ZM13.1656 10.3474C13.3812 10.3474 13.5641 10.2737 13.7141 10.1263C13.8641 9.97895 13.9391 9.79934 13.9391 9.5875C13.9391 9.37566 13.8641 9.19605 13.7141 9.04868C13.5641 8.90132 13.3812 8.82763 13.1656 8.82763C12.95 8.82763 12.7672 8.90132 12.6172 9.04868C12.4672 9.19605 12.3922 9.37566 12.3922 9.5875C12.3922 9.79934 12.4672 9.97895 12.6172 10.1263C12.7672 10.2737 12.95 10.3474 13.1656 10.3474ZM7.34375 4.10263H14.6562C14.4312 3.86316 14 3.67434 13.3625 3.53618C12.725 3.39803 11.9422 3.32895 11.0141 3.32895C9.90781 3.32895 9.05938 3.39112 8.46875 3.51546C7.87812 3.6398 7.50312 3.83553 7.34375 4.10263ZM8.49687 11.0382H13.5031C13.8312 11.0382 14.1055 10.9138 14.3258 10.6651C14.5461 10.4164 14.6562 10.1309 14.6562 9.80855V8.15066H7.34375V9.80855C7.34375 10.1309 7.45391 10.4164 7.67422 10.6651C7.89453 10.9138 8.16875 11.0382 8.49687 11.0382Z" fill="#75BEE9"/>
<path d="M1.5 16C1.06667 16 0.708333 15.8583 0.425 15.575C0.141667 15.2917 0 14.9333 0 14.5V10.675C0.616667 10.5417 1.12917 10.2292 1.5375 9.7375C1.94583 9.24583 2.15 8.66667 2.15 8C2.15 7.33333 1.94583 6.75 1.5375 6.25C1.12917 5.75 0.616667 5.44167 0 5.325V1.5C0 1.06667 0.141667 0.708333 0.425 0.425C0.708333 0.141667 1.06667 0 1.5 0H18.5C18.9333 0 19.2917 0.141667 19.575 0.425C19.8583 0.708333 20 1.06667 20 1.5V14.5C20 14.9333 19.8583 15.2917 19.575 15.575C19.2917 15.8583 18.9333 16 18.5 16H1.5ZM1.5 14.5H18.5V1.5H1.5V4.225C2.15 4.65833 2.67083 5.2 3.0625 5.85C3.45417 6.5 3.65 7.21667 3.65 8C3.65 8.78333 3.45417 9.5 3.0625 10.15C2.67083 10.8 2.15 11.3417 1.5 11.775V14.5Z" fill="#75BEE9"/>
</svg>
